# xmcd
#
# Track frame offsets: 
#        150
#        7901
#        29872
#        48745
#        67551
#        87009
#        113506
#        138386
#        164014
#        187582
#        213294
#        228624
#        247506
#        267552
#
# Disc length: 3828 seconds
#
# Revision: 0
# Processed by: cddbd v1.5PL3 Copyright (c) Steve Scherf et al.
# Submitted via: ExactAudioCopy v0.95a4
#
DISCID=b00ef20e
DTITLE=Willy DeVille Trio - Live In Berlin
DYEAR=2002
DGENRE=Blues
TTITLE0=Intro
TTITLE1=Betty and Dupree
TTITLE2=It's Too Late She's Gone
TTITLE3=Spanish Harlem
TTITLE4=Trouble In Mind
TTITLE5=Storybook Love
TTITLE6=Big Blue Diamond
TTITLE7=Shake Sugaree
TTITLE8=Let It Be Me
TTITLE9=The Way You Make A Broken Heart
TTITLE10=Hound Dog
TTITLE11=Junker's Blues
TTITLE12=You Better Move On
TTITLE13=Nightfalls
EXTD=
EXTT0=
EXTT1=
EXTT2=
EXTT3=
EXTT4=
EXTT5=
EXTT6=
EXTT7=
EXTT8=
EXTT9=
EXTT10=
EXTT11=
EXTT12=
EXTT13=
PLAYORDER=
